<?xml version="1.0" encoding="utf-8"?>
<!-- Generator: Adobe Illustrator 17.1.0, SVG Export Plug-In . SVG Version: 6.00 Build 0)  -->
<!DOCTYPE svg PUBLIC "-//W3C//DTD SVG 1.1//EN" "http://www.w3.org/Graphics/SVG/1.1/DTD/svg11.dtd">
<svg version="1.1" id="Layer_1" xmlns="http://www.w3.org/2000/svg" xmlns:xlink="http://www.w3.org/1999/xlink" x="0px" y="0px"
	 viewBox="0 0 40 40" enable-background="new 0 0 40 40" xml:space="preserve">
<g>
	<path fill="#F5ECE6" d="M17.951,39.152c-0.543-0.542-0.847-1.289-0.847-2.05c0-0.763,0.304-1.509,0.847-2.048
		c0.541-0.539,1.286-0.847,2.05-0.847c0.763,0,1.509,0.308,2.049,0.847c0.54,0.539,0.847,1.285,0.847,2.048
		c0,0.761-0.307,1.509-0.847,2.05c-0.54,0.536-1.286,0.849-2.049,0.849C19.236,40.001,18.492,39.688,17.951,39.152"/>
	<path fill="#F5ECE6" d="M17.951,22.046c-0.539-0.542-0.847-1.288-0.847-2.049c0-0.764,0.308-1.51,0.847-2.05
		c0.539-0.539,1.286-0.847,2.048-0.847c0.765,0,1.508,0.308,2.05,0.847c0.54,0.54,0.847,1.286,0.847,2.05
		c0,0.761-0.307,1.507-0.847,2.049c-0.543,0.537-1.286,0.847-2.05,0.847C19.236,22.893,18.49,22.583,17.951,22.046"/>
	<path fill="#F5ECE6" d="M17.952,4.941c-0.537-0.543-0.847-1.286-0.847-2.048c0-0.764,0.31-1.509,0.847-2.052
		C18.49,0.303,19.237-0.001,20-0.001c0.764,0,1.51,0.304,2.05,0.842c0.539,0.543,0.848,1.287,0.848,2.052
		c0,0.762-0.308,1.505-0.848,2.048c-0.54,0.538-1.286,0.847-2.05,0.847C19.236,5.788,18.49,5.479,17.952,4.941"/>
	<path fill="#F5ECE6" d="M17.875,13.413c-0.519-0.558-0.798-1.317-0.768-2.076c0.029-0.768,0.364-1.499,0.927-2.019
		c0.559-0.518,1.314-0.794,2.08-0.764c0.759,0.028,1.495,0.364,2.011,0.923c0.518,0.562,0.802,1.316,0.771,2.083
		c-0.029,0.76-0.368,1.493-0.929,2.012c-0.558,0.517-1.318,0.799-2.077,0.771C19.125,14.314,18.393,13.971,17.875,13.413"/>
	<path fill="#F5ECE6" d="M17.952,30.598c-0.539-0.543-0.848-1.287-0.848-2.049c0-0.764,0.309-1.509,0.848-2.05
		c0.539-0.539,1.285-0.848,2.049-0.848c0.762,0,1.508,0.308,2.048,0.848c0.539,0.541,0.848,1.286,0.848,2.05
		c0,0.762-0.309,1.506-0.848,2.049c-0.54,0.535-1.286,0.847-2.048,0.847C19.236,31.445,18.492,31.133,17.952,30.598"/>
	<path fill="#F5ECE6" d="M26.504,22.046c-0.538-0.542-0.849-1.288-0.849-2.049c0-0.764,0.311-1.51,0.849-2.05
		c0.538-0.539,1.285-0.847,2.049-0.847s1.507,0.308,2.049,0.847c0.539,0.54,0.849,1.286,0.849,2.05c0,0.761-0.31,1.507-0.849,2.049
		c-0.542,0.537-1.285,0.847-2.049,0.847C27.79,22.893,27.042,22.583,26.504,22.046"/>
	<path fill="#F5ECE6" d="M26.504,13.492c-0.538-0.538-0.847-1.284-0.847-2.045c0-0.767,0.309-1.509,0.847-2.053
		c0.538-0.536,1.288-0.842,2.049-0.842c0.763,0,1.507,0.306,2.048,0.842c0.539,0.544,0.849,1.286,0.849,2.053
		c0,0.762-0.31,1.508-0.849,2.045c-0.541,0.538-1.285,0.853-2.048,0.853C27.792,14.345,27.042,14.031,26.504,13.492"/>
	<path fill="#F5ECE6" d="M26.504,30.598c-0.541-0.543-0.849-1.287-0.849-2.049c0-0.764,0.308-1.509,0.849-2.05
		c0.538-0.539,1.285-0.848,2.049-0.848c0.765,0,1.51,0.308,2.049,0.848c0.539,0.541,0.849,1.286,0.849,2.05
		c0,0.762-0.31,1.506-0.849,2.049c-0.539,0.535-1.284,0.847-2.049,0.847C27.79,31.445,27.042,31.133,26.504,30.598"/>
	<path fill="#F5ECE6" d="M35.056,22.046c-0.54-0.542-0.847-1.288-0.847-2.049c0-0.764,0.307-1.51,0.847-2.05
		c0.539-0.539,1.286-0.847,2.049-0.847s1.51,0.308,2.049,0.847c0.538,0.54,0.846,1.286,0.846,2.05c0,0.761-0.308,1.507-0.846,2.049
		c-0.539,0.537-1.286,0.847-2.049,0.847S35.596,22.583,35.056,22.046"/>
	<path fill="#F5ECE6" d="M9.399,22.046c-0.539-0.542-0.849-1.288-0.849-2.049c0-0.764,0.31-1.51,0.849-2.05
		c0.539-0.539,1.287-0.847,2.052-0.847c0.759,0,1.505,0.308,2.047,0.847c0.538,0.54,0.848,1.286,0.848,2.05
		c0,0.761-0.31,1.507-0.848,2.049c-0.542,0.537-1.287,0.847-2.047,0.847C10.686,22.893,9.938,22.583,9.399,22.046"/>
	<path fill="#F5ECE6" d="M9.401,13.492c-0.543-0.538-0.85-1.284-0.85-2.045c0-0.767,0.307-1.509,0.85-2.053
		c0.538-0.536,1.282-0.842,2.047-0.842c0.761,0,1.507,0.306,2.047,0.842c0.539,0.544,0.85,1.286,0.85,2.053
		c0,0.762-0.312,1.508-0.85,2.045c-0.539,0.538-1.286,0.853-2.047,0.853C10.682,14.345,9.939,14.031,9.401,13.492"/>
	<path fill="#F5ECE6" d="M9.399,30.598c-0.539-0.543-0.845-1.287-0.845-2.049c0-0.764,0.306-1.509,0.845-2.05
		c0.539-0.539,1.285-0.848,2.05-0.848c0.764,0,1.511,0.308,2.05,0.848c0.539,0.541,0.849,1.286,0.849,2.05
		c0,0.762-0.31,1.506-0.849,2.049c-0.539,0.535-1.286,0.847-2.05,0.847C10.684,31.445,9.938,31.133,9.399,30.598"/>
	<path fill="#F5ECE6" d="M0.848,22.046C0.306,21.504,0,20.758,0,19.997c0-0.764,0.306-1.51,0.848-2.05
		c0.54-0.539,1.286-0.847,2.05-0.847c0.762,0,1.508,0.308,2.047,0.847c0.539,0.54,0.847,1.286,0.847,2.05
		c0,0.761-0.308,1.507-0.847,2.049c-0.539,0.537-1.286,0.847-2.047,0.847C2.134,22.893,1.388,22.583,0.848,22.046"/>
</g>
</svg>
