<?xml version="1.0" encoding="utf-8"?>
<!-- Generator: Adobe Illustrator 17.1.0, SVG Export Plug-In . SVG Version: 6.00 Build 0)  -->
<!DOCTYPE svg PUBLIC "-//W3C//DTD SVG 1.1//EN" "http://www.w3.org/Graphics/SVG/1.1/DTD/svg11.dtd">
<svg version="1.1" id="Layer_1" xmlns="http://www.w3.org/2000/svg" xmlns:xlink="http://www.w3.org/1999/xlink" x="0px" y="0px"
	 viewBox="0 0 49 40" enable-background="new 0 0 49 40" xml:space="preserve">
<path fill="#F5ECE6" d="M47.255,9.012c-5.606,0.163-12.377-4.236-15-5.893c-0.244-0.154-0.491-0.296-0.743-0.423
	c-0.275-0.154-0.559-0.294-0.842-0.435v16.184h-0.008c0.01,1.448-0.42,2.977-1.327,4.443l-0.079,0.129
	c-2.621,4.238-8.136,6.709-13.309,4.962c-5.023-1.697-6.364-6.562-3.704-10.864l0.081-0.129c2.618-4.236,8.134-6.709,13.306-4.96
	c0.399,0.134,0.768,0.294,1.117,0.469V0.789C24.895,0.288,22.93,0,20.861,0C8.889,0,0,8.96,0,20v0.144C0,31.184,8.816,40,20.718,40
	c11.971,0,20.861-8.96,20.861-20v-0.144c0-0.86-0.06-1.705-0.163-2.534C47.649,15.696,50.221,9.244,47.255,9.012z"/>
</svg>
