<?xml version="1.0" encoding="utf-8"?>
<!-- Generator: Adobe Illustrator 15.1.0, SVG Export Plug-In . SVG Version: 6.00 Build 0)  -->
<!DOCTYPE svg PUBLIC "-//W3C//DTD SVG 1.1//EN" "http://www.w3.org/Graphics/SVG/1.1/DTD/svg11.dtd">
<svg version="1.1" id="Layer_1" xmlns="http://www.w3.org/2000/svg" xmlns:xlink="http://www.w3.org/1999/xlink" x="0px" y="0px"
	 width="111px" height="108px" viewBox="0 0 111 108" enable-background="new 0 0 111 108" xml:space="preserve">

<a xlink:href="../index.html" target="_top">

<path fill="#202020" d="M18.79,108h72.921c11.071-9.975,18.035-24.421,18.035-40.497c0-30.097-24.398-54.496-54.495-54.496
	c-30.098,0-54.497,24.399-54.497,54.496C0.754,83.579,7.718,98.025,18.79,108z"/>
<g>
	<path fill="#FFFFFF" d="M34.049,56.797c-0.798-2.589,0.317-3.371,2.478-1.742l21.178,15.993c2.159,1.629,3.926,0.748,3.926-1.958
		V12.191c0-2.707,2.214-4.921,4.922-4.921h22.503c2.711,0,4.274,2.114,3.477,4.703L70.478,83.797
		c-0.794,2.586-3.232,3.396-5.417,1.796L48.381,73.38c-2.186-1.6-3.971-0.692-3.971,2.011v10.059c0,2.702-0.653,2.804-1.451,0.219
		L34.049,56.797z"/>
	<path fill="#FFFFFF" d="M88.764,56.321c3.043,6.777,3.715,14.913,1.806,22.402c-1.864,7.518-6.207,14.492-12.36,19.521
		c-12.389,10.209-31.42,10.804-44.562,1.506c-6.591-4.486-11.67-11.122-14.238-18.65c-2.632-7.513-2.714-15.788-0.352-23.292
		c2.33-7.521,7.17-14.151,13.444-18.644c6.271-4.486,13.932-6.953,21.463-6.705c1.286,0.043,2.292,1.121,2.25,2.406
		c-0.041,1.182-0.962,2.131-2.11,2.241c-6.518,0.634-12.725,3.146-17.541,7.298c-4.837,4.102-8.333,9.623-9.89,15.616
		c-1.583,5.982-1.209,12.433,0.921,18.137c2.159,5.71,6.122,10.703,11.151,14.113c5.05,3.396,11.101,5.155,17.219,5.027
		c6.147-0.14,12.173-1.993,17.074-5.688c4.956-3.599,8.756-8.889,10.832-14.848c2.087-5.986,2.33-12.57,0.657-19.031
		c-0.311-1.198,0.408-2.419,1.604-2.729c1.071-0.278,2.163,0.271,2.602,1.249L88.764,56.321z"/>
</g>

</a>
</svg>
