<?xml version="1.0" encoding="UTF-8"?>
<svg width="12px" height="12px" viewBox="0 0 12 12" version="1.1" xmlns="http://www.w3.org/2000/svg" xmlns:xlink="http://www.w3.org/1999/xlink">
    <!-- Generator: Sketch 41.2 (35397) - http://www.bohemiancoding.com/sketch -->
    <title>Combined Shape</title>
    <desc>Created with Sketch.</desc>
    <defs></defs>
    <g id="Symbols" stroke="none" stroke-width="1" fill="none" fill-rule="evenodd">
        <g id="MQ-/-Bits-/-Icons-/-Fullscreen-Active" transform="translate(1.000000, 1.000000)" fill="#595959">
            <path d="M9,1 L9,4 L11,4 L11,-1 L6,-1 L6,1 L9,1 Z M1,9 L1,6 L-1,6 L-1,11 L4,11 L4,9 L1,9 Z M4,1 L4,-1 L-1,-1 L-1,4 L1,4 L1,1 L4,1 Z M6,9 L6,11 L7,11 L10,11 L11,11 L11,6 L9,6 L9,9 L6,9 Z" id="Combined-Shape"></path>
        </g>
    </g>
</svg>