<?xml version="1.0" encoding="utf-8"?>
<!-- Generator: Adobe Illustrator 16.0.0, SVG Export Plug-In . SVG Version: 6.00 Build 0)  -->
<!DOCTYPE svg PUBLIC "-//W3C//DTD SVG 1.1//EN" "http://www.w3.org/Graphics/SVG/1.1/DTD/svg11.dtd">
<svg version="1.1" id="Layer_1" xmlns="http://www.w3.org/2000/svg" xmlns:xlink="http://www.w3.org/1999/xlink" x="0px" y="0px"
	 width="40px" height="40px" viewBox="0 0 40 40" enable-background="new 0 0 40 40" xml:space="preserve">
<path fill="#FFFFFF" d="M33.572,10.094c6.467,6.466,6.466,16.989,0,23.455s-16.988,6.466-23.455,0
	C3.869,27.3,3.66,17.268,9.485,10.763L7.037,8.314c-1.14-1.14-0.777-2.32,0.806-2.624l11.123-2.125
	c1.584-0.302,2.632,0.745,2.33,2.331l-2.126,11.12c-0.302,1.585-1.483,1.947-2.623,0.808l-2.398-2.398
	c-3.27,3.928-3.064,9.79,0.619,13.474c3.903,3.902,10.253,3.902,14.156,0s3.904-10.254,0.001-14.157
	c-0.854-0.854-1.845-1.539-2.938-2.035c-1.654-0.752-2.385-2.701-1.634-4.354c0.75-1.654,2.699-2.384,4.352-1.635
	C30.521,7.543,32.157,8.678,33.572,10.094z"/>
</svg>
