<?xml version="1.0" encoding="UTF-8"?>
<svg width="15px" height="15px" viewBox="0 0 15 15" version="1.1" xmlns="http://www.w3.org/2000/svg" xmlns:xlink="http://www.w3.org/1999/xlink">
    <!-- Generator: Sketch 40.3 (33839) - http://www.bohemiancoding.com/sketch -->
    <title>Update</title>
    <desc>Created with Sketch.</desc>
    <defs></defs>
    <g id="Wireframes" stroke="none" stroke-width="1" fill="none" fill-rule="evenodd">
        <g id="Group-2-Copy-2" transform="translate(-172.000000, -32.000000)" fill="#ABABAB">
            <g id="Group-4">
                <path d="M185.866,41.187 C185.622935,41.0807295 185.347604,41.0753942 185.100605,41.1721685 C184.853605,41.2689428 184.65518,41.4598954 184.549,41.703 C183.672139,43.7088926 181.689173,45.0037708 179.5,45 C178.041367,45.0017008 176.642582,44.4202239 175.615,43.385 L178,41 L172,41 L172,47 L174.204,44.796 C175.605409,46.2065869 177.511608,46.9998769 179.5,47 C182.484014,47.0034101 185.186327,45.2379927 186.382,42.504 C186.488271,42.260935 186.493606,41.9856043 186.396831,41.7386048 C186.300057,41.4916052 186.109105,41.29318 185.866,41.187 L185.866,41.187 Z M184.796,34.204 C183.394591,32.7934131 181.488392,32.0001231 179.5,32 C176.515986,31.9965899 173.813673,33.7620073 172.618,36.496 C172.472861,36.8238286 172.514326,37.2042701 172.72668,37.4931347 C172.939034,37.7819992 173.289779,37.9350792 173.645979,37.8943562 C174.002179,37.8536332 174.309323,37.6253396 174.451,37.296 C175.328164,35.2904987 177.311065,33.9960557 179.5,34 C180.958522,33.9988554 182.357102,34.5802469 183.385,35.615 L181,38 L187,38 L187,32 L184.796,34.204 L184.796,34.204 Z" id="Update"></path>
            </g>
        </g>
    </g>
</svg>