<?xml version="1.0" encoding="utf-8"?>
<!-- Generator: Adobe Illustrator 16.0.0, SVG Export Plug-In . SVG Version: 6.00 Build 0)  -->
<!DOCTYPE svg PUBLIC "-//W3C//DTD SVG 1.1//EN" "http://www.w3.org/Graphics/SVG/1.1/DTD/svg11.dtd">
<svg version="1.1" id="Layer_1" xmlns="http://www.w3.org/2000/svg" xmlns:xlink="http://www.w3.org/1999/xlink" x="0px" y="0px"
	 width="220px" height="80px" viewBox="0 0 220 80" enable-background="new 0 0 220 80" xml:space="preserve">
<g>
	<path fill="#FFFFFF" d="M15.474,36.181l-4.692-13.975l-2.193,4.487v9.487H2.265V2.214h6.324V17.77l6.834-15.555h6.375
		l-6.682,14.332l6.987,19.635H15.474z"/>
	<path fill="#FFFFFF" d="M23.634,36.181V2.214h6.324v33.967H23.634z"/>
	<path fill="#FFFFFF" d="M42.811,36.946c-6.069,0-9.792-4.08-9.792-9.333V10.782c0-5.252,3.723-9.333,9.792-9.333
		c6.018,0,9.18,3.774,9.18,8.873v4.132H46.33v-4.08c0-1.989-1.121-3.366-3.417-3.366c-2.294,0-3.467,1.377-3.467,3.264v17.85
		c0,1.887,1.173,3.264,3.467,3.264c2.296,0,3.417-1.376,3.417-3.366v-4.08h5.662v4.131C51.991,33.172,48.829,36.946,42.811,36.946z"
		/>
	<path fill="#FFFFFF" d="M67.751,36.181l-4.692-13.975l-2.193,4.487v9.487h-6.324V2.214h6.324V17.77l6.834-15.555h6.375
		l-6.681,14.332l6.987,19.635H67.751z"/>
	<path fill="#FFFFFF" d="M84.073,36.946c-5.814,0-9.435-3.468-9.435-8.772v-2.347h5.814v1.989c0,2.5,1.173,3.877,3.468,3.877
		c2.243,0,3.366-1.327,3.366-3.417c0-2.703-1.734-4.54-5.1-7.039c-3.469-2.499-7.243-5.866-7.243-10.607
		c0-4.897,3.162-9.13,9.283-9.13c5.354,0,8.925,3.673,8.925,8.722v2.193h-5.764v-2.04c0-2.091-1.071-3.621-3.213-3.621
		c-1.836,0-3.06,1.172-3.06,3.061c0,2.856,1.684,4.334,5.458,7.088c4.029,3.009,6.885,6.069,6.885,10.659
		C93.457,33.02,89.683,36.946,84.073,36.946z"/>
	<path fill="#FFFFFF" d="M106.463,7.824v28.357h-6.376V7.824h-6.272v-5.61h18.872v5.61H106.463z"/>
	<path fill="#FFFFFF" d="M125.182,36.181l-1.123-6.681h-6.018l-1.224,6.681H110.9l6.835-33.967h7.089l6.783,33.967H125.182z
		 M121.202,11.395l-2.295,13.107h4.335L121.202,11.395z"/>
	<path fill="#FFFFFF" d="M148.693,36.385c-2.5,0-3.468-2.04-3.468-4.999v-6.375c0-1.581-0.816-2.907-2.602-2.907h-3.315v14.076
		h-6.324V2.214h10.456c4.642,0,7.752,2.652,7.752,7.396v4.794c0,2.55-1.173,4.437-3.825,5.253c2.652,0.714,3.927,2.958,3.927,5.151
		v6.222c0,1.582,0.459,2.652,1.225,3.468v1.888H148.693z M145.021,9.865c0-1.53-0.663-2.447-2.245-2.447h-3.468v9.996h3.213
		c1.633,0,2.5-0.867,2.5-2.704V9.865z"/>
	<path fill="#FFFFFF" d="M165.319,7.824v28.357h-6.374V7.824h-6.273v-5.61h18.87v5.61H165.319z"/>
	<path fill="#FFFFFF" d="M173.227,36.181V2.214h16.217v5.458h-9.895v8.415h6.835v4.998h-6.835v9.435h9.895v5.662H173.227z"/>
	<path fill="#FFFFFF" d="M207.549,36.385c-2.498,0-3.468-2.04-3.468-4.999v-6.375c0-1.581-0.815-2.907-2.601-2.907h-3.314v14.076
		h-6.324V2.214h10.455c4.641,0,7.752,2.652,7.752,7.396v4.794c0,2.55-1.174,4.437-3.824,5.253c2.65,0.714,3.926,2.958,3.926,5.151
		v6.222c0,1.582,0.46,2.652,1.225,3.468v1.888H207.549z M203.878,9.865c0-1.53-0.664-2.447-2.245-2.447h-3.467v9.996h3.213
		c1.631,0,2.499-0.867,2.499-2.704V9.865z"/>
</g>
<g>
	<path fill="#FFFFFF" d="M26.592,77.17h-5.661l-3.417-19.992L13.893,77.17h-5.61L2.265,43.204h6.273l3.06,22.44l3.774-22.44h4.896
		l3.468,22.44L27,43.204h5.865L26.592,77.17z"/>
	<path fill="#FFFFFF" d="M43.372,77.936c-5.916,0-9.639-3.876-9.639-9.282V51.721c0-5.355,3.723-9.231,9.639-9.231
		c5.967,0,9.639,3.876,9.639,9.231v16.933C53.011,74.06,49.339,77.936,43.372,77.936z M46.636,51.312
		c0-1.988-1.173-3.315-3.264-3.315c-2.041,0-3.213,1.327-3.213,3.315v17.748c0,1.99,1.172,3.315,3.213,3.315
		c2.091,0,3.264-1.325,3.264-3.315V51.312z"/>
	<path fill="#FFFFFF" d="M71.729,77.375c-2.5,0-3.468-2.041-3.468-4.999v-6.375c0-1.581-0.816-2.907-2.602-2.907h-3.315V77.17
		h-6.324V43.204h10.455c4.641,0,7.752,2.652,7.752,7.395v4.795c0,2.549-1.173,4.436-3.825,5.252
		c2.652,0.714,3.927,2.958,3.927,5.151v6.222c0,1.582,0.458,2.653,1.224,3.469v1.887H71.729z M68.057,50.854
		c0-1.529-0.663-2.448-2.244-2.448h-3.469v9.996h3.213c1.632,0,2.499-0.867,2.499-2.703V50.854z"/>
	<path fill="#FFFFFF" d="M77.391,77.17V43.204h6.324v28.356h9.487v5.61H77.391z"/>
	<path fill="#FFFFFF" d="M104.778,77.17h-9.791V43.204h9.791c5.968,0,9.283,3.825,9.283,9.18v15.911
		C114.062,73.702,110.746,77.17,104.778,77.17z M107.685,52.435c0-2.448-1.018-3.774-3.364-3.774h-3.01v23.051h3.01
		c2.347,0,3.364-1.326,3.364-3.722V52.435z"/>
</g>
</svg>
