<?xml version="1.0" encoding="UTF-8"?>
<svg width="13px" height="3px" viewBox="0 0 13 3" version="1.1" xmlns="http://www.w3.org/2000/svg" xmlns:xlink="http://www.w3.org/1999/xlink">
    <!-- Generator: Sketch 41.2 (35397) - http://www.bohemiancoding.com/sketch -->
    <title>menu</title>
    <desc>Created with Sketch.</desc>
    <defs></defs>
    <g id="Symbols" stroke="none" stroke-width="1" fill="none" fill-rule="evenodd">
        <g id="Bits-/-Label-Default" transform="translate(0.000000, -4.000000)" fill="#4B4B4B">
            <path d="M1.5,7 C2.32842712,7 3,6.32842712 3,5.5 C3,4.67157288 2.32842712,4 1.5,4 C0.671572875,4 0,4.67157288 0,5.5 C0,6.32842712 0.671572875,7 1.5,7 Z M6.5,7 C7.32842712,7 8,6.32842712 8,5.5 C8,4.67157288 7.32842712,4 6.5,4 C5.67157288,4 5,4.67157288 5,5.5 C5,6.32842712 5.67157288,7 6.5,7 Z M11.5,7 C12.3284271,7 13,6.32842712 13,5.5 C13,4.67157288 12.3284271,4 11.5,4 C10.6715729,4 10,4.67157288 10,5.5 C10,6.32842712 10.6715729,7 11.5,7 Z" id="menu"></path>
        </g>
    </g>
</svg>