<?xml version="1.0" encoding="utf-8"?>
<!-- Generator: Adobe Illustrator 17.1.0, SVG Export Plug-In . SVG Version: 6.00 Build 0)  -->
<!DOCTYPE svg PUBLIC "-//W3C//DTD SVG 1.1//EN" "http://www.w3.org/Graphics/SVG/1.1/DTD/svg11.dtd">
<svg version="1.1" id="Layer_1" xmlns="http://www.w3.org/2000/svg" xmlns:xlink="http://www.w3.org/1999/xlink" x="0px" y="0px"
	 viewBox="0 0 40 40" enable-background="new 0 0 40 40" xml:space="preserve">
<path fill-rule="evenodd" clip-rule="evenodd" fill="#F5ECE6" d="M35.383,40H4.614C2.066,40,0,37.934,0,35.386V4.614
	C0,2.066,2.066,0,4.614,0h30.771C37.934,0,40,2.066,40,4.614v30.769C40,37.933,37.933,40,35.383,40z M8.499,17h-3.5v16.015
	c0,1.105,0.895,2,2,2h26.502c0.828,0,1.5-0.671,1.5-1.5l0-16.515h-3.5c0.248,0.961,0.528,1.99,0.528,3.028
	c0,6.628-5.373,12.001-12.001,12.001s-12-5.373-12-12.001C8.027,18.99,8.252,17.96,8.499,17z M21.068,12.093
	c-5.233-0.66-9.634,3.741-8.975,8.975c0.449,3.566,3.329,6.445,6.895,6.895c5.233,0.66,9.634-3.741,8.975-8.975
	C27.513,15.422,24.633,12.542,21.068,12.093z M34.024,4.999H29c-0.552,0-1,0.448-1,1v5c0,0.552,0.448,1,1,1h5.004
	c0.551,0,0.998-0.445,1-0.996l0.02-5C35.027,5.449,34.578,4.999,34.024,4.999z"/>
</svg>
