<?xml version="1.0" encoding="utf-8"?>
<!-- Generator: Adobe Illustrator 17.1.0, SVG Export Plug-In . SVG Version: 6.00 Build 0)  -->
<!DOCTYPE svg PUBLIC "-//W3C//DTD SVG 1.1//EN" "http://www.w3.org/Graphics/SVG/1.1/DTD/svg11.dtd">
<svg version="1.1" id="Layer_1" xmlns="http://www.w3.org/2000/svg" xmlns:xlink="http://www.w3.org/1999/xlink" x="0px" y="0px"
	 viewBox="0 0 40 40" enable-background="new 0 0 40 40" xml:space="preserve">
<path fill-rule="evenodd" clip-rule="evenodd" fill="#F5ECE6" d="M20,40C8.972,40,0,31.028,0,20C0,8.972,8.972,0,20,0
	c11.028,0,20,8.972,20,20C40,31.028,31.028,40,20,40z M36.867,22.738c-0.584-0.184-5.288-1.587-10.641-0.73
	c2.234,6.14,3.144,11.141,3.319,12.18C33.377,31.596,36.106,27.491,36.867,22.738z M26.673,35.751
	c-0.254-1.499-1.246-6.722-3.644-12.955c-0.038,0.013-0.075,0.025-0.113,0.038c-9.635,3.357-13.094,10.04-13.402,10.668
	c2.896,2.259,6.537,3.606,10.486,3.606C22.366,37.109,24.622,36.625,26.673,35.751z M7.309,31.448
	c0.387-0.662,5.075-8.425,13.886-11.273c0.223-0.072,0.447-0.14,0.673-0.203c-0.429-0.97-0.896-1.942-1.385-2.899
	c-8.531,2.553-16.809,2.446-17.557,2.431c-0.005,0.174-0.009,0.347-0.009,0.522C2.917,24.414,4.58,28.42,7.309,31.448z
	 M3.278,16.527c0.764,0.01,7.802,0.041,15.793-2.081c-2.831-5.032-5.883-9.262-6.334-9.88C7.958,6.82,4.386,11.226,3.278,16.527z
	 M15.997,3.418c0.472,0.632,3.575,4.857,6.374,10.001c6.075-2.277,8.646-5.733,8.953-6.171C28.308,4.571,24.341,2.943,20,2.943
	C18.622,2.943,17.281,3.108,15.997,3.418z M33.223,9.223c-0.36,0.487-3.223,4.157-9.539,6.736c0.398,0.814,0.779,1.641,1.133,2.474
	c0.126,0.295,0.248,0.589,0.368,0.882c5.684-0.715,11.332,0.431,11.895,0.55C37.043,15.833,35.603,12.13,33.223,9.223z"/>
</svg>
