<?xml version="1.0" encoding="utf-8"?>
<!DOCTYPE svg PUBLIC "-//W3C//DTD SVG 1.1//EN" "http://www.w3.org/Graphics/SVG/1.1/DTD/svg11.dtd">
<svg version="1.1" id="mark" xmlns="http://www.w3.org/2000/svg" xmlns:xlink="http://www.w3.org/1999/xlink" x="0px" y="0px"
	 viewBox="0 0 60 62" enable-background="new 0 0 60 62" xml:space="preserve">
<link rel="stylesheet" type="text/css" href="css/style.css" />
<path d="M35.4,20.7c-0.2,0.1-0.3,0.4-0.3,0.6s0.1,0.4,0.3,0.6l5.9,4.9c0.3,0.2,0.7,0.2,1,0l8.7-7.2v22.9L1.2,1.5
	C1,1.3,0.7,1.3,0.4,1.4C0.2,1.5,0,1.8,0,2.1v57.9c0,0.3,0.2,0.6,0.4,0.7c0.3,0.1,0.6,0.1,0.8-0.1l23.4-19.2c0.2-0.1,0.3-0.4,0.3-0.6
	c0-0.2-0.1-0.4-0.3-0.6l-5.9-4.9c-0.3-0.2-0.7-0.2-1,0L9,42.5V19.5l49.8,41c0.2,0.2,0.5,0.2,0.8,0.1c0.3-0.1,0.4-0.4,0.4-0.7V2.1
	c0-0.3-0.2-0.6-0.4-0.7c-0.3-0.1-0.6-0.1-0.8,0.1L35.4,20.7z"/>
</svg>
