<?xml version="1.0" encoding="UTF-8"?>
<svg width="13px" height="13px" viewBox="0 0 13 13" version="1.1" xmlns="http://www.w3.org/2000/svg" xmlns:xlink="http://www.w3.org/1999/xlink">
    <!-- Generator: Sketch 41.2 (35397) - http://www.bohemiancoding.com/sketch -->
    <title>Group 11</title>
    <desc>Created with Sketch.</desc>
    <defs></defs>
    <g id="Final-Design" stroke="none" stroke-width="1" fill="none" fill-rule="evenodd">
        <g id="Visibility-Toggle" transform="translate(-600.000000, -301.000000)">
            <g id="Group-11" transform="translate(599.000000, 301.000000)">
                <rect id="bounds" x="0" y="0" width="15" height="13"></rect>
                <path d="M4.76762413,10.1717157 C2.54247959,8.85708143 1,6.44 1,6.44 C1,6.44 3.91,2 7.502,2 C8.94642161,2 10.2809647,2.71955841 11.36001,3.5793298 L10.3998202,4.53951963 C9.77090438,3.61107825 8.70780386,3.00068903 7.502,3 C5.56900338,3 4.002,4.56700338 4.002,6.5 C4.002,7.70604974 4.61201172,8.76962361 5.54032669,9.39901314 L4.76762413,10.1717157 Z M6.241959,10.8187012 C6.64957999,10.9343109 7.07087772,11 7.502,11 C11.09,11 14,6.44 14,6.44 C14,6.44 13.4253197,5.56316814 12.4718408,4.58881934 L10.9756536,6.08500655 C10.9917311,6.22110028 11,6.35958494 11,6.5 C11,8.434 9.434,10 7.502,10 C7.3609689,10 7.22188604,9.99165863 7.08521785,9.97544233 L6.241959,10.8187012 Z M6.0192911,5.65310463 C5.71009025,6.17353827 5.70950323,6.82121574 6.01776019,7.34220902 C6.154743,7.5737273 6.34301254,7.76383234 6.56302818,7.90181492 C6.83812103,8.07433911 8.9365426,5.68135196 8.66937979,5.3867436 C8.37921538,5.06677067 7.96521627,4.86041834 7.501,4.844 C6.89702823,4.82242441 6.32849194,5.13267098 6.0192911,5.65310463 Z" id="Shape-Copy" fill="#EEEEEE"></path>
                <path d="M2.5,11.5 L12.5,1.5" id="Path-3" stroke="#EEEEEE" stroke-width="1.5" stroke-linecap="square"></path>
            </g>
        </g>
    </g>
</svg>