<?xml version="1.0" encoding="utf-8"?>
<!-- Generator: Adobe Illustrator 15.1.0, SVG Export Plug-In . SVG Version: 6.00 Build 0)  -->
<!DOCTYPE svg PUBLIC "-//W3C//DTD SVG 1.1//EN" "http://www.w3.org/Graphics/SVG/1.1/DTD/svg11.dtd">
<svg version="1.1" id="Layer_1" xmlns="http://www.w3.org/2000/svg" xmlns:xlink="http://www.w3.org/1999/xlink" x="0px" y="0px"
	 width="75.383px" height="99.063px" viewBox="17.358 7.27 75.383 99.063" enable-background="new 17.358 7.27 75.383 99.063"
	 xml:space="preserve">
<a xlink:href="../index.html" >
	<g>
		<path fill="#FFFFFF" d="M34.049,56.797c-0.798-2.589,0.317-3.371,2.478-1.742l21.178,15.993c2.158,1.629,3.926,0.748,3.926-1.958
			V12.191c0-2.707,2.215-4.921,4.922-4.921h22.504c2.711,0,4.273,2.114,3.477,4.703L70.479,83.797
			c-0.795,2.586-3.232,3.396-5.418,1.796L48.381,73.38c-2.186-1.6-3.971-0.692-3.971,2.011v10.06c0,2.702-0.653,2.804-1.451,0.219
			L34.049,56.797z"/>
		<path fill="#FFFFFF" d="M88.764,56.32c3.043,6.777,3.715,14.914,1.807,22.402c-1.864,7.519-6.207,14.492-12.36,19.521
			c-12.39,10.209-31.42,10.804-44.562,1.506c-6.591-4.486-11.67-11.122-14.238-18.65c-2.632-7.513-2.714-15.787-0.352-23.291
			c2.33-7.521,7.17-14.151,13.444-18.645c6.271-4.486,13.932-6.953,21.463-6.705c1.286,0.043,2.292,1.121,2.25,2.406
			c-0.041,1.182-0.962,2.131-2.11,2.241c-6.518,0.634-12.725,3.146-17.541,7.298c-4.837,4.102-8.333,9.623-9.89,15.616
			c-1.583,5.982-1.209,12.434,0.921,18.138c2.159,5.71,6.122,10.702,11.151,14.112c5.05,3.396,11.101,5.155,17.219,5.027
			c6.146-0.14,12.174-1.992,17.074-5.688c4.956-3.6,8.756-8.89,10.832-14.849c2.087-5.985,2.33-12.569,0.656-19.03
			c-0.311-1.198,0.408-2.42,1.604-2.729c1.071-0.278,2.163,0.271,2.603,1.249L88.764,56.32z"/>
	</g>
</a>
</svg>
