<?xml version="1.0" encoding="utf-8"?>
<!-- Generator: Adobe Illustrator 17.1.0, SVG Export Plug-In . SVG Version: 6.00 Build 0)  -->
<!DOCTYPE svg PUBLIC "-//W3C//DTD SVG 1.1//EN" "http://www.w3.org/Graphics/SVG/1.1/DTD/svg11.dtd">
<svg version="1.1" id="Layer_1" xmlns="http://www.w3.org/2000/svg" xmlns:xlink="http://www.w3.org/1999/xlink" x="0px" y="0px"
	 viewBox="0 0 20 20" enable-background="new 0 0 20 20" xml:space="preserve">
<g>
	<g>
		<path fill="#FFFFFF" d="M9.971,13.478l-0.134,0.108l-2.077,2.079c-0.458,0.457-1.065,0.708-1.711,0.708
			c-0.646,0-1.254-0.251-1.71-0.708c-0.458-0.459-0.71-1.065-0.71-1.71c0-0.646,0.252-1.254,0.708-1.711l2.078-2.079L6.56,9.953
			c0.513-0.758,0.38-1.779-0.311-2.379c-0.69-0.601-1.721-0.589-2.399,0.024L1.77,9.677h0.002c-2.363,2.363-2.363,6.191,0,8.552
			C2.952,19.409,4.499,20,6.048,20c1.548,0,3.094-0.591,4.274-1.771l0.001,0.001l2.079-2.079l0.085-0.103
			c0.593-0.713,0.55-1.759-0.099-2.422C11.74,12.966,10.696,12.901,9.971,13.478z M18.228,1.771C17.048,0.59,15.501,0,13.952,0
			c-1.548,0-3.096,0.591-4.275,1.771L7.599,3.848L7.587,3.862c-0.631,0.683-0.64,1.735-0.02,2.429
			c0.62,0.695,1.665,0.805,2.416,0.256l0.182-0.133l2.077-2.078c0.457-0.458,1.064-0.709,1.71-0.709
			c0.646,0,1.254,0.251,1.708,0.708c0.459,0.459,0.711,1.065,0.711,1.711c0,0.646-0.252,1.253-0.709,1.71l-2.077,2.078l-0.12,0.166
			c-0.525,0.728-0.437,1.731,0.207,2.356c0.644,0.625,1.648,0.684,2.36,0.137l0.119-0.091l2.077-2.078l-0.001-0.001
			C20.591,7.962,20.591,4.132,18.228,1.771z"/>
	</g>
</g>
</svg>
